# xmcd CD database file generated by OrangeCD 5.2
#
# Track frame offsets:
#	150
#	25702
#	42550
#	61582
#	87057
#	103615
#	124382
#	143482
#	162530
#	178157
#	191090
#	209187
#
# Disc length: 3104 seconds
#
# Revision: 2
# Processed by: cddbd v1.5PL3 Copyright (c) Steve Scherf et al.
# Submitted via: OrangeCD 5.2
#
DISCID=ac0c1e0c
DTITLE=Mojo Blues Band - Take A Train
DYEAR=1900
DGENRE=Blues
TTITLE0=Take A Train, Train
TTITLE1=Alligator Walk
TTITLE2=Papa Tree Top Boogie
TTITLE3=The Sun Is Still Shining
TTITLE4=I Stay Mad
TTITLE5=Got My Mojo Working
TTITLE6=Chicago Is Callin'
TTITLE7=Hoodoo Man
TTITLE8=Money Ain't Reason Enough
TTITLE9=Why Don't Cha Stop It
TTITLE10=Smack Dab In The Middle
TTITLE11=I'm Not That Easy
EXTD=
EXTT0=
EXTT1=
EXTT2=
EXTT3=
EXTT4=
EXTT5=
EXTT6=
EXTT7=
EXTT8=
EXTT9=
EXTT10=
EXTT11=
PLAYORDER=
